<svg width="256" height="256" xmlns="http://www.w3.org/2000/svg" version="1.1">

 <g>
  <title>Layer 1</title>
  <g stroke="null" id="svg_23">
   <g stroke="null" id="svg_1" fill="none" stroke-width="2">
    <path stroke="#ffc5de" id="svg_2" d="m195.45236,141.00846q9.40951,0 39.39355,0.00255a0.15797,0.15542 -90 0 0 0.15542,-0.15797q0,-16.31694 -0.00255,-16.82653q-0.01274,-1.76317 -0.21148,-2.25747q-0.97586,-2.41034 -3.36072,-2.48423q-1.82941,-0.05605 -3.93655,-0.05096q-1.37079,0.0051 -32.03512,0.0051q-30.66689,-0.00255 -32.03767,-0.0051q-2.10714,-0.00764 -3.93655,0.04841q-2.38486,0.07389 -3.36072,2.48423q-0.19874,0.4943 -0.21148,2.25747q-0.00255,0.50959 -0.00255,16.82653a0.15797,0.15542 90 0 0 0.15542,0.15797q29.98404,0 39.391,0" vector-effect="non-scaling-stroke"/>
    <path stroke="#ffc5de" id="svg_3" d="m195.66383,193.91113q-31.12551,0.0051 -35.05697,-0.01019c-1.49309,-0.0051 -1.60774,-0.76693 -1.60774,-2.11478q-0.00255,-24.51109 -0.00255,-47.66922q0,-0.45353 -0.27772,-0.82808a0.60386,0.58857 87.9 0 0 -0.15288,-0.14523q-0.3032,-0.20129 -1.33002,-0.22167q-1.42939,-0.02803 -1.42684,1.35805q0.05096,18.97189 0.02548,47.02714q-0.00255,2.05363 0.23441,2.68552q0.74654,1.98229 2.47914,2.72883q0.88668,0.38219 3.41932,0.39748q0.23186,0.00255 33.69892,-0.00255q33.46451,-0.0051 33.69637,-0.00764q2.53264,-0.01529 3.41932,-0.39748q1.73259,-0.74654 2.47914,-2.73138q0.23696,-0.63189 0.23441,-2.68552q-0.03567,-28.05526 0.01019,-47.02714q0.00255,-1.38607 -1.42684,-1.3555q-1.02682,0.02038 -1.33002,0.22167a0.60386,0.58857 -87.9 0 0 -0.15288,0.14523q-0.27772,0.37455 -0.27772,0.82808q0.00764,23.15814 0.01274,47.66922c0,1.34785 -0.11466,2.10969 -1.60774,2.11478q-3.93146,0.01529 -35.05952,0.02038" vector-effect="non-scaling-stroke"/>
    <path stroke="#ffc5de" id="svg_4" d="m176.63589,159.32043a0.08153,0.08153 0 0 0 -0.05605,-0.02293l-9.15471,0a0.08153,0.08153 0 0 0 -0.05605,0.14014l14.05183,14.05183a0.08153,0.08153 0 0 1 0,0.1172l-13.92444,13.92699a0.08153,0.08153 0 0 0 0.05605,0.14014l9.1649,0a0.08153,0.08153 0 0 0 0.05605,-0.02293l14.03655,-14.03909a0.08153,0.08153 0 0 0 0,-0.1172l-14.17413,-14.17413" vector-effect="non-scaling-stroke"/>
    <path stroke="#ffc5de" id="svg_5" d="m223.80827,187.62539a1.98484,1.98484 0 0 0 -1.98484,-1.98484l-21.40771,0a1.98484,1.98484 0 0 0 -1.98484,1.98484l0,0.07644a1.98484,1.98484 0 0 0 1.98484,1.98484l21.40771,0a1.98484,1.98484 0 0 0 1.98484,-1.98484l0,-0.07644" vector-effect="non-scaling-stroke"/>
    <path stroke="#ffc5de" id="svg_6" d="m166.07982,130.35811a2.16829,2.16829 0 0 0 -2.16829,-2.16829a2.16829,2.16829 0 0 0 -2.16829,2.16829a2.16829,2.16829 0 0 0 2.16829,2.16829a2.16829,2.16829 0 0 0 2.16829,-2.16829" vector-effect="non-scaling-stroke"/>
    <path stroke="#ffc5de" id="svg_7" d="m173.85865,130.35811a2.17084,2.17084 0 0 0 -2.17084,-2.17084a2.17084,2.17084 0 0 0 -2.17084,2.17084a2.17084,2.17084 0 0 0 2.17084,2.17084a2.17084,2.17084 0 0 0 2.17084,-2.17084" vector-effect="non-scaling-stroke"/>
    <path stroke="#ffc5de" id="svg_8" d="m181.62984,130.35811a2.17338,2.17338 0 0 0 -2.17338,-2.17338a2.17338,2.17338 0 0 0 -2.17338,2.17338a2.17338,2.17338 0 0 0 2.17338,2.17338a2.17338,2.17338 0 0 0 2.17338,-2.17338" vector-effect="non-scaling-stroke"/>
   </g>
   <path stroke="null" id="svg_9" d="m119.80177,39.38937a0.06625,0.06625 0 0 1 0.0586,0.09937l-25.57867,44.30341a0.14523,0.14014 14.5 0 1 -0.12485,0.07134l-67.42842,0a0.18345,0.18345 0 0 1 -0.15797,-0.08918l-11.64404,-20.16687a0.0637,0.0637 0 0 1 0.05605,-0.09427l61.32103,0a0.19874,0.19619 -12.7 0 1 0.17836,0.11211q1.43194,2.97089 4.21937,4.16077c3.67921,1.57207 7.88075,0.27772 10.02865,-3.0728c2.75176,-4.29581 0.89942,-10.17134 -3.99006,-11.96508c-4.27288,-1.56698 -8.56104,0.50959 -10.36498,4.64997a0.21403,0.21403 0 0 1 -0.19619,0.1274l-64.62315,0a0.24205,0.23951 -14.7 0 1 -0.20893,-0.11975l-10.35988,-17.94252a0.05096,0.04841 75 0 1 0.04077,-0.07389l118.7743,0z" fill="#4faafd"/>
   <path stroke="null" id="svg_10" d="m160.84382,39.38937a0.07389,0.07389 0 0 1 0.0637,0.11211l-50.42608,86.77995a0.15542,0.15542 0 0 1 -0.13249,0.07389l-18.90819,0a0.23441,0.23186 75.6 0 1 -0.20383,-0.1223q-1.00898,-1.90585 -2.30842,-2.8868c-3.7582,-2.84349 -8.83877,-2.18612 -11.61856,1.6587c-2.30333,3.18746 -1.92624,7.50875 0.77712,10.32421c4.26523,4.43849 11.25675,2.66004 13.43778,-2.91228a0.1223,0.11975 -79 0 1 0.11211,-0.07644l22.17463,0a0.12485,0.1223 15 0 0 0.10701,-0.06115l53.94223,-92.82364a0.13249,0.1274 -74.4 0 1 0.11211,-0.06625l20.15667,0a0.07134,0.07134 0 0 1 0.06115,0.10701l-93.52941,161.99994a0.07389,0.07389 0 0 1 -0.1274,0l-57.34371,-99.32341a0.06115,0.06115 0 0 1 0.05351,-0.09173l67.67812,0a0.24205,0.24205 0 0 0 0.21148,-0.12485l35.75255,-62.49053a0.15033,0.14778 -75 0 1 0.12994,-0.07644l19.82799,0z" fill="#467cf9"/>
   <path stroke="null" id="svg_11" d="m170.14122,104.65714a0.06879,0.06879 0 0 1 -0.09173,-0.09682l37.57432,-65.08178a0.18345,0.1809 -74.2 0 1 0.15542,-0.08918l47.17492,0a0.06879,0.06625 -74.6 0 1 0.05605,0.10192l-36.48636,63.19886a0.23696,0.23696 0 0 1 -0.29046,0.10192q-8.93304,-3.52124 -18.46994,-4.07669c-9.31523,-0.54526 -18.99991,1.17205 -27.29343,4.82833q-0.67011,0.29556 -2.32881,1.11345z" fill="#345af6"/>
   <circle stroke="null" id="svg_12" r="2.11988" cy="60.34609" cx="83.90908" fill="#345af6"/>
   <path stroke="null" id="svg_13" d="m146.46331,132.18753q3.27409,-6.5176 8.19159,-11.88355c0.13504,-0.14778 0.20383,-0.36181 0.35161,-0.50959q0.80769,-0.81789 3.45499,-3.45754q0.07389,-0.07134 0.26753,-0.16052a0.78476,0.78476 0 0 0 0.19874,-0.13249c8.7445,-8.10242 20.75289,-13.16006 32.57783,-14.18433q2.16829,-0.18855 3.81425,-0.17071c1.54914,0.01529 3.34798,-0.03312 5.09331,0.11211q19.20375,1.6001 33.59955,14.50282c5.71246,5.11879 10.4618,11.78672 13.52186,18.76805q3.92126,8.94578 4.64997,18.44956q0.10447,1.3555 0.0637,5.81692q-0.02803,3.14669 -0.40512,5.80418q-2.15045,15.1984 -11.6364,27.31636c-0.63189,0.81024 -1.18734,1.29944 -1.68673,1.99758q-0.29556,0.41531 -0.6803,0.78986c-1.71221,1.66125 -3.60532,3.72253 -5.55194,5.34301q-12.88233,10.7064 -29.52032,12.76768q-2.61418,0.32359 -5.08567,0.27008c-2.25492,-0.04586 -4.50984,0.09427 -6.80043,-0.15033q-6.09974,-0.65482 -11.89629,-2.53774c-2.93012,-0.95293 -6.31632,-2.339 -9.12669,-3.8805q-7.0756,-3.8754 -12.8059,-9.42479q-2.4664,-2.38996 -5.02707,-5.7252q-2.43327,-3.16962 -4.25759,-6.29339q-0.38729,-0.65991 -1.9135,-3.74801c-2.54793,-5.15446 -4.21173,-10.67583 -4.9863,-16.24815q-0.22422,-1.60774 -0.372,-2.92757q-0.20383,-1.80648 -0.19364,-2.94031q0.02038,-2.53264 0.00255,-3.56201q-0.02548,-1.50837 0.1809,-3.54672q0.67775,-6.71634 2.71355,-12.78042q1.19498,-3.55946 3.2639,-7.67437zm48.98905,8.82093q9.40951,0 39.39355,0.00255a0.15797,0.15542 -90 0 0 0.15542,-0.15797q0,-16.31694 -0.00255,-16.82653q-0.01274,-1.76317 -0.21148,-2.25747q-0.97586,-2.41034 -3.36072,-2.48423q-1.82941,-0.05605 -3.93655,-0.05096q-1.37079,0.0051 -32.03512,0.0051q-30.66689,-0.00255 -32.03767,-0.0051q-2.10714,-0.00764 -3.93655,0.04841q-2.38486,0.07389 -3.36072,2.48423q-0.19874,0.4943 -0.21148,2.25747q-0.00255,0.50959 -0.00255,16.82653a0.15797,0.15542 90 0 0 0.15542,0.15797q29.98404,0 39.391,0zm0.21148,52.90267q-31.12551,0.0051 -35.05697,-0.01019c-1.49309,-0.0051 -1.60774,-0.76693 -1.60774,-2.11478q-0.00255,-24.51109 -0.00255,-47.66922q0,-0.45353 -0.27772,-0.82808a0.60386,0.58857 87.9 0 0 -0.15288,-0.14523q-0.3032,-0.20129 -1.33002,-0.22167q-1.42939,-0.02803 -1.42684,1.35805q0.05096,18.97189 0.02548,47.02714q-0.00255,2.05363 0.23441,2.68552q0.74654,1.98229 2.47914,2.72883q0.88668,0.38219 3.41932,0.39748q0.23186,0.00255 33.69892,-0.00255q33.46451,-0.0051 33.69637,-0.00764q2.53264,-0.01529 3.41932,-0.39748q1.73259,-0.74654 2.47914,-2.73138q0.23696,-0.63189 0.23441,-2.68552q-0.03567,-28.05526 0.01019,-47.02714q0.00255,-1.38607 -1.42684,-1.3555q-1.02682,0.02038 -1.33002,0.22167a0.60386,0.58857 -87.9 0 0 -0.15288,0.14523q-0.27772,0.37455 -0.27772,0.82808q0.00764,23.15814 0.01274,47.66922c0,1.34785 -0.11466,2.10969 -1.60774,2.11478q-3.93146,0.01529 -35.05952,0.02038zm-19.02794,-34.5907a0.08153,0.08153 0 0 0 -0.05605,-0.02293l-9.15471,0a0.08153,0.08153 0 0 0 -0.05605,0.14014l14.05183,14.05183a0.08153,0.08153 0 0 1 0,0.1172l-13.92444,13.92699a0.08153,0.08153 0 0 0 0.05605,0.14014l9.1649,0a0.08153,0.08153 0 0 0 0.05605,-0.02293l14.03655,-14.03909a0.08153,0.08153 0 0 0 0,-0.1172l-14.17413,-14.17413zm47.17238,28.30495a1.98484,1.98484 0 0 0 -1.98484,-1.98484l-21.40771,0a1.98484,1.98484 0 0 0 -1.98484,1.98484l0,0.07644a1.98484,1.98484 0 0 0 1.98484,1.98484l21.40771,0a1.98484,1.98484 0 0 0 1.98484,-1.98484l0,-0.07644z" fill="#ff8abd"/>
   <path stroke="null" id="svg_14" d="m195.4549,119.23895q30.66434,0 32.03512,-0.0051q2.10714,-0.0051 3.93655,0.05096q2.38486,0.07389 3.36072,2.48423q0.19874,0.4943 0.21148,2.25747q0.00255,0.50959 0.00255,16.82653a0.15797,0.15542 -90 0 1 -0.15542,0.15797q-29.98404,-0.00255 -39.39355,-0.00255q-9.40696,0 -39.391,0a0.15797,0.15542 90 0 1 -0.15542,-0.15797q0,-16.31694 0.00255,-16.82653q0.01274,-1.76317 0.21148,-2.25747q0.97586,-2.41034 3.36072,-2.48423q1.82941,-0.05605 3.93655,-0.04841q1.37079,0.00255 32.03767,0.0051zm-29.37508,11.11917a2.16829,2.16829 0 0 0 -2.16829,-2.16829a2.16829,2.16829 0 0 0 -2.16829,2.16829a2.16829,2.16829 0 0 0 2.16829,2.16829a2.16829,2.16829 0 0 0 2.16829,-2.16829zm7.77883,0a2.17084,2.17084 0 0 0 -2.17084,-2.17084a2.17084,2.17084 0 0 0 -2.17084,2.17084a2.17084,2.17084 0 0 0 2.17084,2.17084a2.17084,2.17084 0 0 0 2.17084,-2.17084zm7.77119,0a2.17338,2.17338 0 0 0 -2.17338,-2.17338a2.17338,2.17338 0 0 0 -2.17338,2.17338a2.17338,2.17338 0 0 0 2.17338,2.17338a2.17338,2.17338 0 0 0 2.17338,-2.17338z" fill="#ffffff"/>
   <circle stroke="null" id="svg_15" r="2.11988" cy="129.6982" cx="83.90908" fill="#345af6"/>
   <circle stroke="null" id="svg_16" r="2.16829" cy="130.35811" cx="163.91153" fill="#ff8abd"/>
   <circle stroke="null" id="svg_17" r="2.17084" cy="130.35811" cx="171.68781" fill="#ff8abd"/>
   <circle stroke="null" id="svg_18" r="2.17338" cy="130.35811" cx="179.45645" fill="#ff8abd"/>
   <path stroke="null" id="svg_19" d="m195.66638,197.11643q-33.46706,0.0051 -33.69892,0.00255q-2.53264,-0.01529 -3.41932,-0.39748q-1.73259,-0.74654 -2.47914,-2.72883q-0.23696,-0.63189 -0.23441,-2.68552q0.02548,-28.05526 -0.02548,-47.02714q-0.00255,-1.38607 1.42684,-1.35805q1.02682,0.02038 1.33002,0.22167a0.60386,0.58857 87.9 0 1 0.15288,0.14523q0.27772,0.37455 0.27772,0.82808q0,23.15814 0.00255,47.66922c0,1.34785 0.11466,2.10969 1.60774,2.11478q3.93146,0.01529 35.05697,0.01019q31.12806,-0.0051 35.05952,-0.02038c1.49309,-0.0051 1.60774,-0.76693 1.60774,-2.11478q-0.0051,-24.51109 -0.01274,-47.66922q0,-0.45353 0.27772,-0.82808a0.60386,0.58857 -87.9 0 1 0.15288,-0.14523q0.3032,-0.20129 1.33002,-0.22167q1.42939,-0.03058 1.42684,1.3555q-0.04586,18.97189 -0.01019,47.02714q0.00255,2.05363 -0.23441,2.68552q-0.74654,1.98484 -2.47914,2.73138q-0.88668,0.38219 -3.41932,0.39748q-0.23186,0.00255 -33.69637,0.00764z" fill="#ffffff"/>
   <path stroke="null" id="svg_20" d="m176.63589,159.32043l14.17413,14.17413a0.08153,0.08153 0 0 1 0,0.1172l-14.03655,14.03909a0.08153,0.08153 0 0 1 -0.05605,0.02293l-9.1649,0a0.08153,0.08153 0 0 1 -0.05605,-0.14014l13.92444,-13.92699a0.08153,0.08153 0 0 0 0,-0.1172l-14.05183,-14.05183a0.08153,0.08153 0 0 1 0.05605,-0.14014l9.15471,0a0.08153,0.08153 0 0 1 0.05605,0.02293z" fill="#ffffff"/>
   <path stroke="null" id="svg_21" d="m137.18884,161.49891a0.09937,0.09682 -29.9 0 1 0.18345,0.04841q-0.01019,0.90961 0.1223,2.07911q2.6524,23.37471 20.05221,38.74637q1.25868,1.11345 2.10969,1.72495a0.32104,0.31849 -57.4 0 1 0.09173,0.42041l-6.92527,11.99311a0.20129,0.19364 14.3 0 1 -0.17326,0.09937l-47.14435,0a0.07899,0.07899 0 0 1 -0.06879,-0.1172l31.7523,-54.99452z" fill="#345af6"/>
   <rect stroke="null" id="svg_22" rx="7.79" height="4.04611" width="25.37738" y="185.64055" x="198.43089" fill="#ffffff"/>
  </g>
 </g>
</svg>