<svg width="256" height="256" xmlns="http://www.w3.org/2000/svg" version="1.1">

 <g>
  <title>Layer 1</title>
  <g stroke="null" id="svg_23">
   <g stroke="null" id="svg_1" fill="none" stroke-width="2">
    <path stroke="#fee880" id="svg_2" d="m235.41155,121.62636l-19.22158,5.55958a0.08918,0.08918 0 0 0 -0.03822,0.15033l4.65507,4.46907a0.14778,0.14523 43.9 0 1 0.0051,0.20638l-23.01036,23.95309a0.1274,0.1274 0 0 1 -0.18345,0q-12.41097,-12.85431 -12.60206,-13.06578c-1.30964,-1.43448 -2.47914,-2.06128 -4.24485,-1.56952q-0.69813,0.19619 -2.59889,2.19886q-17.10935,18.04699 -20.03183,21.09176q-1.29435,1.34785 -1.04465,3.03458c0.31085,2.11988 2.47659,3.41168 4.39008,2.74667q0.80515,-0.28027 2.32116,-1.87782q10.14586,-10.69621 18.02151,-18.98208a0.11466,0.11211 -45.4 0 1 0.16307,-0.00255q12.25045,12.67595 12.46447,12.91801q1.1695,1.31983 2.12243,1.6587q2.07656,0.7389 3.72253,-0.97331q7.93425,-8.24765 25.38503,-26.41439a0.16816,0.16816 0 0 1 0.23951,-0.0051l4.63214,4.45123a0.09427,0.09427 0 0 0 0.15797,-0.04586l4.78756,-19.41523a0.07389,0.07134 -1.3 0 0 -0.09173,-0.08663" vector-effect="non-scaling-stroke"/>
    <path stroke="#fee880" id="svg_3" d="m220.35838,148.80258a0.12994,0.12994 0 0 0 -0.03567,0.09173l0,44.72127a0.12994,0.12994 0 0 0 0.12994,0.12994l9.914,0a0.12994,0.12994 0 0 0 0.12994,-0.12994l0,-46.16849a0.12994,0.12994 0 0 0 -0.04077,-0.09427l-4.43085,-4.26014a0.12994,0.12994 0 0 0 -0.18345,0.0051l-5.48315,5.70482" vector-effect="non-scaling-stroke"/>
    <path stroke="#fee880" id="svg_4" d="m218.0525,151.36325a0.06625,0.06625 0 0 0 -0.11211,-0.04586l-9.79934,10.20191a0.82043,0.81534 67.2 0 0 -0.22931,0.56819l0,31.53573a0.1223,0.1223 0 0 0 0.1223,0.1223l9.89106,0a0.1274,0.1274 0 0 0 0.1274,-0.1274l0,-42.25487" vector-effect="non-scaling-stroke"/>
    <path stroke="#fee880" id="svg_5" d="m183.02101,157.26426l0,36.34367a0.13759,0.13759 0 0 0 0.13759,0.13759l9.93438,0a0.10956,0.10956 0 0 0 0.10956,-0.10956l0,-26.10354a0.24715,0.24205 19 0 0 -0.09682,-0.19364q-0.72106,-0.5529 -1.23065,-1.07013q-1.78865,-1.81413 -8.7343,-9.05025a0.07134,0.06879 23.3 0 0 -0.11975,0.04586" vector-effect="non-scaling-stroke"/>
    <path stroke="#fee880" id="svg_6" d="m180.67947,193.74552a0.07644,0.07644 0 0 0 0.07644,-0.07644l0,-36.18825a0.07644,0.07644 0 0 0 -0.13249,-0.05351l-10.02356,10.43123a0.07644,0.07644 0 0 0 -0.02038,0.05351l0,25.75702a0.07644,0.07644 0 0 0 0.07644,0.07644l10.02356,0" vector-effect="non-scaling-stroke"/>
    <path stroke="#fee880" id="svg_7" d="m205.54217,193.74552a0.10447,0.10447 0 0 0 0.10447,-0.10447l0,-29.30119a0.10701,0.10447 66 0 0 -0.18345,-0.07134q-0.9198,1.02172 -1.86254,1.97974c-2.16064,2.19377 -4.96082,3.14415 -7.98776,2.30078a0.1223,0.11975 -82.2 0 0 -0.15288,0.1172l0,24.94423a0.13504,0.13504 0 0 0 0.13504,0.13504l9.94712,0" vector-effect="non-scaling-stroke"/>
    <path stroke="#fee880" id="svg_8" d="m158.13538,174.91377l0,18.69926a0.13249,0.13249 0 0 0 0.13249,0.13249l9.86558,0a0.18855,0.186 90 0 0 0.186,-0.18855l0,-23.05112a0.08408,0.08408 0 0 0 -0.14523,-0.05605q-0.46372,0.51468 -1.70711,1.81413c-1.97465,2.06382 -4.23466,3.09319 -7.16223,2.72119c-0.42041,-0.05351 -0.63189,-0.14268 -1.00898,-0.20638a0.13759,0.13759 0 0 0 -0.16052,0.13504" vector-effect="non-scaling-stroke"/>
   </g>
   <path stroke="null" id="svg_9" d="m119.80177,39.38937a0.06625,0.06625 0 0 1 0.0586,0.09937l-25.57867,44.30341a0.14523,0.14014 14.5 0 1 -0.12485,0.07134l-67.42842,0a0.18345,0.18345 0 0 1 -0.15797,-0.08918l-11.64404,-20.16687a0.0637,0.0637 0 0 1 0.05605,-0.09427l61.32103,0a0.19874,0.19619 -12.7 0 1 0.17836,0.11211q1.43194,2.97089 4.21937,4.16077c3.67921,1.57207 7.88075,0.27772 10.02865,-3.0728c2.75176,-4.29581 0.89942,-10.17134 -3.99006,-11.96508c-4.27288,-1.56698 -8.56104,0.50959 -10.36498,4.64997a0.21403,0.21403 0 0 1 -0.19619,0.1274l-64.62315,0a0.24205,0.23951 -14.7 0 1 -0.20893,-0.11975l-10.35988,-17.94252a0.05096,0.04841 75 0 1 0.04077,-0.07389l118.7743,0z" fill="#4faafd"/>
   <path stroke="null" id="svg_10" d="m160.84383,39.38937a0.07389,0.07389 0 0 1 0.0637,0.11211l-50.42608,86.77995a0.15542,0.15542 0 0 1 -0.13249,0.07389l-18.90819,0a0.23441,0.23186 75.6 0 1 -0.20383,-0.1223q-1.00898,-1.90585 -2.30842,-2.8868c-3.7582,-2.84349 -8.83877,-2.18612 -11.61856,1.6587c-2.30333,3.18746 -1.92624,7.50875 0.77712,10.32421c4.26523,4.43849 11.25675,2.66004 13.43778,-2.91228a0.1223,0.11975 -79 0 1 0.11211,-0.07644l22.17463,0a0.12485,0.1223 15 0 0 0.10701,-0.06115l53.94223,-92.82364a0.13249,0.1274 -74.4 0 1 0.11211,-0.06625l20.15667,0a0.07134,0.07134 0 0 1 0.06115,0.10701l-93.52941,161.99994a0.07389,0.07389 0 0 1 -0.1274,0l-57.34371,-99.32341a0.06115,0.06115 0 0 1 0.05351,-0.09173l67.67812,0a0.24205,0.24205 0 0 0 0.21148,-0.12485l35.75255,-62.49053a0.15033,0.14778 -75 0 1 0.12994,-0.07644l19.82799,0z" fill="#467cf9"/>
   <path stroke="null" id="svg_11" d="m170.14632,104.68772a0.07899,0.07899 0 0 1 -0.10701,-0.10956l37.58452,-65.09961a0.18345,0.1809 -74.2 0 1 0.15542,-0.08918l47.17492,0a0.06879,0.06625 -74.6 0 1 0.05605,0.10192l-36.49655,63.21669a0.24715,0.2446 29.3 0 1 -0.33123,0.09173q-0.23951,-0.12994 -0.32104,-0.16307q-9.06299,-3.50595 -18.96934,-3.98241a0.49939,0.49175 62 0 1 -0.2497,-0.07899q-0.0051,-0.00255 -0.05096,-0.03567a0.09427,0.07899 56.6 0 0 -0.0586,-0.01784l-4.17096,0.00255a0.43315,0.4306 27.9 0 0 -0.24205,0.07389l-0.05605,0.04077a0.27008,0.26498 -61.5 0 1 -0.13249,0.04077c-7.203,0.16307 -14.54358,1.96191 -21.20133,4.72641c-0.74909,0.31085 -1.75552,0.82298 -2.5836,1.28161z" fill="#345af6"/>
   <circle stroke="null" id="svg_12" r="2.11988" cy="60.3461" cx="83.90908" fill="#345af6"/>
   <path stroke="null" id="svg_13" d="m252.53873,157.68466a56.23536,56.23536 0 0 1 -56.23536,56.23536a56.23536,56.23536 0 0 1 -56.23536,-56.23536a56.23536,56.23536 0 0 1 56.23536,-56.23536a56.23536,56.23536 0 0 1 56.23536,56.23536zm-17.12719,-36.05831l-19.22158,5.55958a0.08918,0.08918 0 0 0 -0.03822,0.15033l4.65507,4.46907a0.14778,0.14523 43.9 0 1 0.0051,0.20638l-23.01036,23.95309a0.1274,0.1274 0 0 1 -0.18345,0q-12.41097,-12.85431 -12.60206,-13.06578c-1.30964,-1.43448 -2.47914,-2.06128 -4.24485,-1.56952q-0.69813,0.19619 -2.59889,2.19886q-17.10935,18.04699 -20.03183,21.09176q-1.29435,1.34785 -1.04465,3.03458c0.31085,2.11988 2.47659,3.41168 4.39008,2.74667q0.80515,-0.28027 2.32116,-1.87782q10.14586,-10.69621 18.02151,-18.98208a0.11466,0.11211 -45.4 0 1 0.16307,-0.00255q12.25045,12.67595 12.46447,12.91801q1.1695,1.31983 2.12243,1.6587q2.07656,0.7389 3.72253,-0.97331q7.93425,-8.24765 25.38503,-26.41439a0.16816,0.16816 0 0 1 0.23951,-0.0051l4.63214,4.45123a0.09427,0.09427 0 0 0 0.15797,-0.04586l4.78756,-19.41523a0.07389,0.07134 -1.3 0 0 -0.09173,-0.08663zm-15.05317,27.17622a0.12994,0.12994 0 0 0 -0.03567,0.09173l0,44.72127a0.12994,0.12994 0 0 0 0.12994,0.12994l9.914,0a0.12994,0.12994 0 0 0 0.12994,-0.12994l0,-46.16849a0.12994,0.12994 0 0 0 -0.04077,-0.09427l-4.43085,-4.26014a0.12994,0.12994 0 0 0 -0.18345,0.0051l-5.48315,5.70482zm-2.30588,2.56067a0.06625,0.06625 0 0 0 -0.11211,-0.04586l-9.79934,10.20191a0.82043,0.81534 67.2 0 0 -0.22931,0.56819l0,31.53573a0.1223,0.1223 0 0 0 0.1223,0.1223l9.89106,0a0.1274,0.1274 0 0 0 0.1274,-0.1274l0,-42.25487zm-35.03149,5.90101l0,36.34367a0.13759,0.13759 0 0 0 0.13759,0.13759l9.93438,0a0.10956,0.10956 0 0 0 0.10956,-0.10956l0,-26.10354a0.24715,0.24205 19 0 0 -0.09682,-0.19364q-0.72106,-0.5529 -1.23065,-1.07013q-1.78865,-1.81413 -8.7343,-9.05025a0.07134,0.06879 23.3 0 0 -0.11975,0.04586zm-2.34155,36.48126a0.07644,0.07644 0 0 0 0.07644,-0.07644l0,-36.18825a0.07644,0.07644 0 0 0 -0.13249,-0.05351l-10.02356,10.43123a0.07644,0.07644 0 0 0 -0.02038,0.05351l0,25.75702a0.07644,0.07644 0 0 0 0.07644,0.07644l10.02356,0zm24.8627,0a0.10447,0.10447 0 0 0 0.10447,-0.10447l0,-29.30119a0.10701,0.10447 66 0 0 -0.18345,-0.07134q-0.9198,1.02172 -1.86254,1.97974c-2.16064,2.19377 -4.96082,3.14415 -7.98776,2.30078a0.1223,0.11975 -82.2 0 0 -0.15288,0.1172l0,24.94423a0.13504,0.13504 0 0 0 0.13504,0.13504l9.94712,0zm-47.40679,-18.83175l0,18.69926a0.13249,0.13249 0 0 0 0.13249,0.13249l9.86558,0a0.18855,0.186 90 0 0 0.186,-0.18855l0,-23.05112a0.08408,0.08408 0 0 0 -0.14523,-0.05605q-0.46372,0.51468 -1.70711,1.81413c-1.97465,2.06382 -4.23466,3.09319 -7.16223,2.72119c-0.42041,-0.05351 -0.63189,-0.14268 -1.00898,-0.20638a0.13759,0.13759 0 0 0 -0.16052,0.13504z" fill="#fdd000"/>
   <path stroke="null" id="svg_14" d="m235.41155,121.62636a0.07389,0.07134 -1.3 0 1 0.09173,0.08663l-4.78756,19.41523a0.09427,0.09427 0 0 1 -0.15797,0.04586l-4.63214,-4.45123a0.16816,0.16816 0 0 0 -0.23951,0.0051q-17.45077,18.16674 -25.38503,26.41439q-1.64596,1.71221 -3.72253,0.97331q-0.95293,-0.33887 -2.12243,-1.6587q-0.21403,-0.24205 -12.46447,-12.91801a0.11466,0.11211 -45.4 0 0 -0.16307,0.00255q-7.87565,8.28587 -18.02151,18.98208q-1.51602,1.59755 -2.32116,1.87782c-1.9135,0.66501 -4.07924,-0.62679 -4.39008,-2.74667q-0.2497,-1.68673 1.04465,-3.03458q2.92248,-3.04478 20.03183,-21.09176q1.90076,-2.00267 2.59889,-2.19886c1.76572,-0.49175 2.93522,0.13504 4.24485,1.56952q0.19109,0.21148 12.60206,13.06578a0.1274,0.1274 0 0 0 0.18345,0l23.01036,-23.95309a0.14778,0.14523 43.9 0 0 -0.0051,-0.20638l-4.65507,-4.46907a0.08918,0.08918 0 0 1 0.03822,-0.15033l19.22158,-5.55958z" fill="#ffffff"/>
   <circle stroke="null" id="svg_15" r="2.11988" cy="129.6982" cx="83.90908" fill="#345af6"/>
   <path stroke="null" id="svg_16" d="m220.35838,148.80258l5.48315,-5.70482a0.12994,0.12994 0 0 1 0.18345,-0.0051l4.43085,4.26014a0.12994,0.12994 0 0 1 0.04077,0.09427l0,46.16849a0.12994,0.12994 0 0 1 -0.12994,0.12994l-9.914,0a0.12994,0.12994 0 0 1 -0.12994,-0.12994l0,-44.72127a0.12994,0.12994 0 0 1 0.03567,-0.09173z" fill="#ffffff"/>
   <path stroke="null" id="svg_17" d="m218.0525,151.36325l0,42.25487a0.1274,0.1274 0 0 1 -0.1274,0.1274l-9.89106,0a0.1223,0.1223 0 0 1 -0.1223,-0.1223l0,-31.53573a0.82043,0.81534 67.2 0 1 0.22931,-0.56819l9.79934,-10.20191a0.06625,0.06625 0 0 1 0.11211,0.04586z" fill="#ffffff"/>
   <path stroke="null" id="svg_18" d="m183.02101,157.26426a0.07134,0.06879 23.3 0 1 0.11975,-0.04586q6.94566,7.23612 8.7343,9.05025q0.50959,0.51723 1.23065,1.07013a0.24715,0.24205 19 0 1 0.09682,0.19364l0,26.10354a0.10956,0.10956 0 0 1 -0.10956,0.10956l-9.93438,0a0.13759,0.13759 0 0 1 -0.13759,-0.13759l0,-36.34367z" fill="#ffffff"/>
   <path stroke="null" id="svg_19" d="m180.67947,193.74552l-10.02356,0a0.07644,0.07644 0 0 1 -0.07644,-0.07644l0,-25.75702a0.07644,0.07644 0 0 1 0.02038,-0.05351l10.02356,-10.43123a0.07644,0.07644 0 0 1 0.13249,0.05351l0,36.18825a0.07644,0.07644 0 0 1 -0.07644,0.07644z" fill="#ffffff"/>
   <path stroke="null" id="svg_20" d="m137.36211,161.50656l0.05351,1.99248a0.08918,0.08408 -65.8 0 0 0.01784,0.05351q0.19109,0.25989 0.20638,1.02427q0.0051,0.36181 0.08663,0.94019q3.13395,22.1517 19.85602,36.88383q1.20262,1.05994 2.07147,1.68928a0.33378,0.32868 -57.3 0 1 0.09173,0.43315l-6.93292,12.00839a0.16307,0.15797 14.5 0 1 -0.14014,0.07899l-47.16728,0a0.07899,0.07899 0 0 1 -0.06879,-0.1172l31.77014,-55.0251a0.08408,0.08408 0 0 1 0.15542,0.03822z" fill="#345af6"/>
   <path stroke="null" id="svg_21" d="m205.54217,193.74552l-9.94712,0a0.13504,0.13504 0 0 1 -0.13504,-0.13504l0,-24.94423a0.1223,0.11975 -82.2 0 1 0.15288,-0.1172c3.02694,0.84336 5.82712,-0.10701 7.98776,-2.30078q0.94273,-0.95802 1.86254,-1.97974a0.10701,0.10447 66 0 1 0.18345,0.07134l0,29.30119a0.10447,0.10447 0 0 1 -0.10447,0.10447z" fill="#ffffff"/>
   <path stroke="null" id="svg_22" d="m158.2959,174.77873c0.37709,0.0637 0.58857,0.15288 1.00898,0.20638c2.92757,0.372 5.18759,-0.65737 7.16223,-2.72119q1.24339,-1.29944 1.70711,-1.81413a0.08408,0.08408 0 0 1 0.14523,0.05605l0,23.05112a0.18855,0.186 -90 0 1 -0.186,0.18855l-9.86558,0a0.13249,0.13249 0 0 1 -0.13249,-0.13249l0,-18.69926a0.13759,0.13759 0 0 1 0.16052,-0.13504z" fill="#ffffff"/>
  </g>
 </g>
</svg>