<svg width="256" height="256" xmlns="http://www.w3.org/2000/svg" version="1.1">

 <g>
  <title>Layer 1</title>
  <g stroke="null" id="svg_31">
   <g stroke="null" id="svg_1" fill="none" stroke-width="2">
    <path stroke="#d3cbf9" id="svg_2" d="m195.46001,141.00082q38.12213,0 39.38335,0.00764a0.17326,0.17071 -89.6 0 0 0.17326,-0.17326q-0.02293,-8.29096 -0.00255,-16.93609q0.00255,-1.61284 -0.28282,-2.29314c-0.88413,-2.10714 -2.47914,-2.34664 -4.56589,-2.35684q-4.01044,-0.01529 -34.70535,-0.01784q-30.69491,0 -34.7028,0.01529c-2.08675,0.01019 -3.68176,0.2497 -4.56589,2.35684q-0.28792,0.6803 -0.28537,2.29314q0.02038,8.64513 -0.00255,16.93609a0.17326,0.17071 89.6 0 0 0.17326,0.17326q1.26123,-0.00764 39.38335,-0.0051" vector-effect="non-scaling-stroke"/>
    <path stroke="#d3cbf9" id="svg_3" d="m195.46256,197.10114q30.49108,0 32.92945,0.03822q2.61163,0.04077 3.58239,-0.25225q2.16829,-0.65737 2.96834,-2.50716q0.38983,-0.90452 0.39238,-3.6894q0.00764,-18.0317 0.0051,-46.21945c-0.00255,-0.97841 -0.23441,-1.52366 -1.22555,-1.5415c-0.73126,-0.01274 -1.57462,-0.05096 -1.89566,0.61405q-0.08408,0.17326 -0.08408,0.99369q-0.01019,25.12259 0.0051,47.77878q0,1.58736 -1.65615,1.58991q-3.09828,0.0051 -35.0213,0.0051q-31.92047,0 -35.01875,-0.0051q-1.65615,-0.00255 -1.65615,-1.58991q0.01529,-22.65619 0.0051,-47.77878q0,-0.82043 -0.08408,-0.99369c-0.32104,-0.66501 -1.1644,-0.62679 -1.89566,-0.61405c-0.99114,0.01784 -1.22301,0.56309 -1.22555,1.5415q-0.00255,28.18775 0.0051,46.21945q0.00255,2.78489 0.39238,3.6894q0.80005,1.8498 2.96834,2.50716q0.97076,0.29301 3.57984,0.25225q2.43837,-0.03822 32.92945,-0.03822" vector-effect="non-scaling-stroke"/>
    <path stroke="#d3cbf9" id="svg_4" d="m223.82356,152.0308a1.9721,1.9721 0 0 0 -1.9721,-1.9721l-21.44847,0a1.9721,1.9721 0 0 0 -1.9721,1.9721l0,0.07644a1.9721,1.9721 0 0 0 1.9721,1.9721l21.44847,0a1.9721,1.9721 0 0 0 1.9721,-1.9721l0,-0.07644" vector-effect="non-scaling-stroke"/>
    <path stroke="#d3cbf9" id="svg_5" d="m190.31064,150.59632a0.17326,0.17326 0 0 0 -0.17326,-0.17326l-22.72244,0a0.17326,0.17326 0 0 0 -0.17326,0.17326l0,38.67248a0.17326,0.17326 0 0 0 0.17326,0.17326l22.72244,0a0.17326,0.17326 0 0 0 0.17326,-0.17326l0,-38.67248" vector-effect="non-scaling-stroke"/>
    <path stroke="#d3cbf9" id="svg_6" d="m223.82611,160.94346a1.98739,1.98739 0 0 0 -1.98739,-1.98739l-21.43828,0a1.98739,1.98739 0 0 0 -1.98739,1.98739l0,0.07644a1.98739,1.98739 0 0 0 1.98739,1.98739l21.43828,0a1.98739,1.98739 0 0 0 1.98739,-1.98739l0,-0.07644" vector-effect="non-scaling-stroke"/>
    <path stroke="#d3cbf9" id="svg_7" d="m223.81075,169.86198a1.99248,1.99248 0 0 0 -1.99597,-1.98899l-21.40766,0.03735a1.99248,1.99248 0 0 0 -1.98902,1.99597l0.00013,0.07134a1.99248,1.99248 0 0 0 1.99597,1.98899l21.40766,-0.03735a1.99248,1.99248 0 0 0 1.98902,-1.99597l-0.00013,-0.07134" vector-effect="non-scaling-stroke"/>
    <path stroke="#d3cbf9" id="svg_8" d="m223.81597,178.76292a1.98484,1.98484 0 0 0 -1.98137,-1.9883l-21.41787,-0.03738a1.98484,1.98484 0 0 0 -1.98828,1.98135l-0.00015,0.08153a1.98484,1.98484 0 0 0 1.98137,1.9883l21.41787,0.03738a1.98484,1.98484 0 0 0 1.98828,-1.98135l0.00015,-0.08153" vector-effect="non-scaling-stroke"/>
    <path stroke="#d3cbf9" id="svg_9" d="m223.81584,187.61089a1.97974,1.97974 0 0 0 -1.98321,-1.9763l-21.42294,0.0374a1.97974,1.97974 0 0 0 -1.9763,1.98318l0.00013,0.07134a1.97974,1.97974 0 0 0 1.98321,1.9763l21.42294,-0.0374a1.97974,1.97974 0 0 0 1.9763,-1.98318l-0.00013,-0.07134" vector-effect="non-scaling-stroke"/>
    <path stroke="#d3cbf9" id="svg_10" d="m166.08238,130.36066a2.16574,2.16574 0 0 0 -2.16574,-2.16574a2.16574,2.16574 0 0 0 -2.16574,2.16574a2.16574,2.16574 0 0 0 2.16574,2.16574a2.16574,2.16574 0 0 0 2.16574,-2.16574" vector-effect="non-scaling-stroke"/>
    <path stroke="#d3cbf9" id="svg_11" d="m173.86121,130.35811a2.17084,2.17084 0 0 0 -2.17084,-2.17084a2.17084,2.17084 0 0 0 -2.17084,2.17084a2.17084,2.17084 0 0 0 2.17084,2.17084a2.17084,2.17084 0 0 0 2.17084,-2.17084" vector-effect="non-scaling-stroke"/>
    <path stroke="#d3cbf9" id="svg_12" d="m181.63494,130.35811a2.17338,2.17338 0 0 0 -2.17338,-2.17338a2.17338,2.17338 0 0 0 -2.17338,2.17338a2.17338,2.17338 0 0 0 2.17338,2.17338a2.17338,2.17338 0 0 0 2.17338,-2.17338" vector-effect="non-scaling-stroke"/>
   </g>
   <path stroke="null" id="svg_13" d="m119.80178,39.38937a0.06625,0.06625 0 0 1 0.0586,0.09937l-25.57867,44.3034a0.14523,0.14014 14.5 0 1 -0.12485,0.07134l-67.42842,0a0.18345,0.18345 0 0 1 -0.15797,-0.08918l-11.64404,-20.16687a0.0637,0.0637 0 0 1 0.05605,-0.09427l61.32103,0a0.19874,0.19619 -12.7 0 1 0.17836,0.11211q1.43194,2.97089 4.21937,4.16077c3.67921,1.57207 7.88075,0.27772 10.02865,-3.0728c2.75176,-4.29581 0.89942,-10.17134 -3.99006,-11.96508c-4.27288,-1.56698 -8.56104,0.50959 -10.36498,4.64997a0.21403,0.21403 0 0 1 -0.19619,0.1274l-64.62315,0a0.24205,0.23951 -14.7 0 1 -0.20893,-0.11975l-10.35988,-17.94252a0.05096,0.04841 75 0 1 0.04077,-0.07389l118.7743,0z" fill="#4faafd"/>
   <path stroke="null" id="svg_14" d="m160.84383,39.38937a0.07389,0.07389 0 0 1 0.0637,0.11211l-50.42608,86.77994a0.15542,0.15542 0 0 1 -0.13249,0.07389l-18.90819,0a0.23441,0.23186 75.6 0 1 -0.20383,-0.1223q-1.00898,-1.90585 -2.30842,-2.8868c-3.7582,-2.84349 -8.83877,-2.18612 -11.61856,1.6587c-2.30333,3.18746 -1.92623,7.50875 0.77712,10.32421c4.26523,4.43849 11.25675,2.66004 13.43778,-2.91228a0.1223,0.11975 -79 0 1 0.11211,-0.07644l22.17463,0a0.12485,0.1223 15 0 0 0.10701,-0.06115l53.94222,-92.82363a0.13249,0.1274 -74.4 0 1 0.11211,-0.06625l20.15667,0a0.07134,0.07134 0 0 1 0.06115,0.10701l-93.52941,161.99993a0.07389,0.07389 0 0 1 -0.1274,0l-57.34371,-99.3234a0.06115,0.06115 0 0 1 0.05351,-0.09173l67.67811,0a0.24205,0.24205 0 0 0 0.21148,-0.12485l35.75255,-62.49053a0.15033,0.14778 -75 0 1 0.12994,-0.07644l19.82799,0z" fill="#467cf9"/>
   <path stroke="null" id="svg_15" d="m170.13358,104.67498a0.07134,0.07134 0 0 1 -0.09173,-0.09937l37.58197,-65.09706a0.18345,0.1809 -74.2 0 1 0.15542,-0.08918l47.17492,0a0.06879,0.06625 -74.6 0 1 0.05605,0.10192l-36.48636,63.1963a0.24715,0.24715 0 0 1 -0.30575,0.10701q-12.17401,-4.80285 -25.37229,-4.07924q-9.8452,0.54271 -19.93755,4.61175c-0.91216,0.3669 -1.81667,0.88668 -2.7747,1.34785z" fill="#345af6"/>
   <circle stroke="null" id="svg_16" r="2.11988" cy="60.34609" cx="83.90909" fill="#345af6"/>
   <path stroke="null" id="svg_17" d="m238.25249,194.72901c-1.29435,1.48544 -2.7645,2.89954 -4.17096,4.21682q-1.967,1.83961 -4.39518,3.63844q-12.27083,9.08337 -27.55841,10.80577q-2.36448,0.26753 -4.57353,0.22422c-1.96955,-0.03567 -4.03337,0.06879 -6.10994,-0.1274q-9.13178,-0.85865 -17.4202,-4.46652q-4.38244,-1.9084 -9.58531,-5.30989q-0.64208,-0.42041 -3.3174,-2.54538c-4.43595,-3.52633 -8.27313,-7.78647 -11.32045,-12.3753q-8.44894,-12.71417 -9.46811,-28.32788q-0.05096,-0.78221 -0.01274,-4.03592q0.03058,-2.34155 0.21403,-4.03083q2.10204,-19.16553 15.1398,-33.2352q2.03325,-2.19122 4.6831,-4.3697q13.76392,-11.31026 31.56121,-12.94348q1.94917,-0.1809 3.5136,-0.14268c1.0472,0.02548 3.27409,-0.05351 4.69583,0.07389q19.71843,1.74788 33.92569,14.59454q7.40174,6.69341 12.23261,16.19719q4.69838,9.24899 5.75832,19.72862q0.23186,2.29059 0.19109,4.11236c-0.04077,1.76572 0.0586,3.6894 -0.08408,5.48824q-0.63443,7.98266 -3.46264,15.49396q-3.55181,9.44008 -10.43632,17.33611zm-42.79248,-53.7282q38.12213,0 39.38335,0.00764a0.17326,0.17071 -89.6 0 0 0.17326,-0.17326q-0.02293,-8.29096 -0.00255,-16.93609q0.00255,-1.61284 -0.28282,-2.29314c-0.88413,-2.10714 -2.47914,-2.34664 -4.56589,-2.35684q-4.01044,-0.01529 -34.70535,-0.01784q-30.69491,0 -34.7028,0.01529c-2.08675,0.01019 -3.68176,0.2497 -4.56589,2.35684q-0.28792,0.6803 -0.28537,2.29314q0.02038,8.64513 -0.00255,16.93609a0.17326,0.17071 89.6 0 0 0.17326,0.17326q1.26123,-0.00764 39.38335,-0.0051zm0.00255,56.10032q30.49108,0 32.92945,0.03822q2.61163,0.04077 3.58239,-0.25225q2.16829,-0.65737 2.96834,-2.50716q0.38983,-0.90452 0.39238,-3.6894q0.00764,-18.0317 0.0051,-46.21945c-0.00255,-0.97841 -0.23441,-1.52366 -1.22555,-1.5415c-0.73126,-0.01274 -1.57462,-0.05096 -1.89566,0.61405q-0.08408,0.17326 -0.08408,0.99369q-0.01019,25.12259 0.0051,47.77878q0,1.58736 -1.65615,1.58991q-3.09828,0.0051 -35.0213,0.0051q-31.92047,0 -35.01875,-0.0051q-1.65615,-0.00255 -1.65615,-1.58991q0.01529,-22.65619 0.0051,-47.77878q0,-0.82043 -0.08408,-0.99369c-0.32104,-0.66501 -1.1644,-0.62679 -1.89566,-0.61405c-0.99114,0.01784 -1.22301,0.56309 -1.22555,1.5415q-0.00255,28.18775 0.0051,46.21945q0.00255,2.78489 0.39238,3.6894q0.80005,1.8498 2.96834,2.50716q0.97076,0.29301 3.57984,0.25225q2.43837,-0.03822 32.92945,-0.03822zm28.36101,-45.07033a1.9721,1.9721 0 0 0 -1.9721,-1.9721l-21.44847,0a1.9721,1.9721 0 0 0 -1.9721,1.9721l0,0.07644a1.9721,1.9721 0 0 0 1.9721,1.9721l21.44847,0a1.9721,1.9721 0 0 0 1.9721,-1.9721l0,-0.07644zm-33.51292,-1.43448a0.17326,0.17326 0 0 0 -0.17326,-0.17326l-22.72244,0a0.17326,0.17326 0 0 0 -0.17326,0.17326l0,38.67248a0.17326,0.17326 0 0 0 0.17326,0.17326l22.72244,0a0.17326,0.17326 0 0 0 0.17326,-0.17326l0,-38.67248zm33.51547,10.34714a1.98739,1.98739 0 0 0 -1.98739,-1.98739l-21.43828,0a1.98739,1.98739 0 0 0 -1.98739,1.98739l0,0.07644a1.98739,1.98739 0 0 0 1.98739,1.98739l21.43828,0a1.98739,1.98739 0 0 0 1.98739,-1.98739l0,-0.07644zm-0.01536,8.91852a1.99248,1.99248 0 0 0 -1.99597,-1.98899l-21.40766,0.03735a1.99248,1.99248 0 0 0 -1.98902,1.99597l0.00013,0.07134a1.99248,1.99248 0 0 0 1.99597,1.98899l21.40766,-0.03735a1.99248,1.99248 0 0 0 1.98902,-1.99597l-0.00013,-0.07134zm0.00522,8.90094a1.98484,1.98484 0 0 0 -1.98137,-1.9883l-21.41787,-0.03738a1.98484,1.98484 0 0 0 -1.98828,1.98135l-0.00015,0.08153a1.98484,1.98484 0 0 0 1.98137,1.9883l21.41787,0.03738a1.98484,1.98484 0 0 0 1.98828,-1.98135l0.00015,-0.08153zm-0.00013,8.84797a1.97974,1.97974 0 0 0 -1.98321,-1.9763l-21.42294,0.0374a1.97974,1.97974 0 0 0 -1.9763,1.98318l0.00013,0.07134a1.97974,1.97974 0 0 0 1.98321,1.9763l21.42294,-0.0374a1.97974,1.97974 0 0 0 1.9763,-1.98318l-0.00013,-0.07134z" fill="#a796f3"/>
   <path stroke="null" id="svg_18" d="m195.46001,119.2313q30.69491,0.00255 34.70535,0.01784c2.08675,0.01019 3.68176,0.2497 4.56589,2.35684q0.28537,0.6803 0.28282,2.29314q-0.02038,8.64513 0.00255,16.93609a0.17326,0.17071 -89.6 0 1 -0.17326,0.17326q-1.26123,-0.00764 -39.38335,-0.00764q-38.12213,-0.00255 -39.38335,0.0051a0.17326,0.17071 89.6 0 1 -0.17326,-0.17326q0.02293,-8.29096 0.00255,-16.93609q-0.00255,-1.61284 0.28537,-2.29314c0.88413,-2.10714 2.47914,-2.34664 4.56589,-2.35684q4.00789,-0.01529 34.7028,-0.01529zm-29.37763,11.12936a2.16574,2.16574 0 0 0 -2.16574,-2.16574a2.16574,2.16574 0 0 0 -2.16574,2.16574a2.16574,2.16574 0 0 0 2.16574,2.16574a2.16574,2.16574 0 0 0 2.16574,-2.16574zm7.77883,-0.00255a2.17084,2.17084 0 0 0 -2.17084,-2.17084a2.17084,2.17084 0 0 0 -2.17084,2.17084a2.17084,2.17084 0 0 0 2.17084,2.17084a2.17084,2.17084 0 0 0 2.17084,-2.17084zm7.77373,0a2.17338,2.17338 0 0 0 -2.17338,-2.17338a2.17338,2.17338 0 0 0 -2.17338,2.17338a2.17338,2.17338 0 0 0 2.17338,2.17338a2.17338,2.17338 0 0 0 2.17338,-2.17338z" fill="#ffffff"/>
   <circle stroke="null" id="svg_19" r="2.11988" cy="129.6982" cx="83.90909" fill="#345af6"/>
   <circle stroke="null" id="svg_20" r="2.16574" cy="130.36066" cx="163.91664" fill="#a796f3"/>
   <circle stroke="null" id="svg_21" r="2.17084" cy="130.35811" cx="171.69037" fill="#a796f3"/>
   <circle stroke="null" id="svg_22" r="2.17338" cy="130.35811" cx="179.46156" fill="#a796f3"/>
   <path stroke="null" id="svg_23" d="m195.46256,193.91113q31.92301,0 35.0213,-0.0051q1.65615,-0.00255 1.65615,-1.58991q-0.01529,-22.65619 -0.0051,-47.77878q0,-0.82043 0.08408,-0.99369c0.32104,-0.66501 1.1644,-0.62679 1.89566,-0.61405c0.99114,0.01784 1.22301,0.56309 1.22555,1.5415q0.00255,28.18775 -0.0051,46.21945q-0.00255,2.78489 -0.39238,3.6894q-0.80005,1.8498 -2.96834,2.50716q-0.97076,0.29301 -3.58239,0.25225q-2.43837,-0.03822 -32.92945,-0.03822q-30.49108,0 -32.92945,0.03822q-2.60908,0.04077 -3.57984,-0.25225q-2.16829,-0.65737 -2.96834,-2.50716q-0.38983,-0.90452 -0.39238,-3.6894q-0.00764,-18.0317 -0.0051,-46.21945c0.00255,-0.97841 0.23441,-1.52366 1.22555,-1.5415c0.73126,-0.01274 1.57462,-0.05096 1.89566,0.61405q0.08408,0.17326 0.08408,0.99369q0.01019,25.12259 -0.0051,47.77878q0,1.58736 1.65615,1.58991q3.09828,0.0051 35.01875,0.0051z" fill="#ffffff"/>
   <rect stroke="null" id="svg_24" rx="7.74" height="4.02063" width="25.39267" y="150.05871" x="198.43089" fill="#ffffff"/>
   <rect stroke="null" id="svg_25" rx="0.68" height="39.019" width="23.06896" y="150.42306" x="167.24168" fill="#ffffff"/>
   <rect stroke="null" id="svg_26" rx="7.8" height="4.05121" width="25.41305" y="158.95608" x="198.41306" fill="#ffffff"/>
   <path stroke="null" id="svg_27" d="m137.25,161.3919a0.04331,0.04331 0 0 1 0.07899,0.02038q0.07899,1.74024 0.29046,3.3174q3.23587,24.21807 22.05998,39.41393a0.29556,0.29046 -55.9 0 1 0.06879,0.37455l-6.93547,12.01349a0.16307,0.15797 14.5 0 1 -0.14014,0.07899l-47.16728,0a0.07899,0.07899 0 0 1 -0.06879,-0.1172l31.81345,-55.10153z" fill="#345af6"/>
   <rect stroke="null" id="svg_28" transform="matrix(0.254793 -0.000444697 0.000444697 0.254793 31.25 318.796)" rx="7.82" height="15.92" width="99.66" y="-591.02983" x="657.11265" fill="#ffffff"/>
   <rect stroke="null" id="svg_29" transform="matrix(0.254793 0.000444697 -0.000444697 0.254793 31.8664 318.051)" rx="7.79" height="15.9" width="99.64" y="-555.77559" x="652.75983" fill="#ffffff"/>
   <rect stroke="null" id="svg_30" transform="matrix(0.254793 -0.000444697 0.000444697 0.254793 31.219 318.796)" rx="7.77" height="15.82" width="99.62" y="-521.31979" x="657.17269" fill="#ffffff"/>
  </g>
 </g>
</svg>