<svg width="256" height="256" xmlns="http://www.w3.org/2000/svg" version="1.1" data-name="图层_1">
 <!-- Generator: Adobe Illustrator 30.0.0, SVG Export Plug-In . SVG Version: 2.1.1 Build 123)  -->

 <g>
  <title>Layer 1</title>
  <g stroke="null" id="svg_8">
   <polygon stroke="null" id="svg_1" fill="#345af6" points="152.32781982421875,215.1147918701172 252.89552307128906,40.89563751220703 206.3271026611328,40.89563751220703 105.75947570800781,215.1147918701172 152.32781982421875,215.1147918701172 " class="st2"/>
   <g stroke="null" id="svg_2">
    <path stroke="null" id="svg_3" fill="#4faafd" d="m3.10448,40.89563l10.29055,17.81538l63.80452,0c1.13238,-3.02663 4.03377,-5.20267 7.45699,-5.20267c4.40427,0 7.98404,3.57977 7.98404,7.98404s-3.57977,7.98404 -7.98404,7.98404c-3.29277,0 -6.1211,-2.00384 -7.34219,-4.85827l-60.50654,0l11.54295,19.99142l66.45543,0l25.24106,-43.71395l-116.93234,0l-0.01044,0z" class="st0"/>
    <path stroke="null" id="svg_4" fill="#345af6" d="m86.72821,61.49238c0,-1.14281 -0.92886,-2.0769 -2.0769,-2.0769s-2.0769,0.92886 -2.0769,2.0769s0.92886,2.0769 2.0769,2.0769s2.0769,-0.92886 2.0769,-2.0769z" class="st2"/>
   </g>
   <g stroke="null" id="svg_5">
    <path stroke="null" id="svg_6" fill="#467cf9" d="m167.22617,40.89563l-53.10694,91.38339l-21.96395,0c-1.08541,3.11534 -4.02333,5.36966 -7.50918,5.36966c-4.40427,0 -7.98404,-3.57977 -7.98404,-7.98404s3.57977,-7.98404 7.98404,-7.98404c3.22493,0 5.99064,1.93078 7.24826,4.68606l18.82252,0l49.67328,-85.48146l-19.68354,0l-35.26026,61.62848l-66.77897,0l56.4832,97.81759l92.04612,-159.44607l-19.98099,0l0.01044,0.01044z" class="st1"/>
    <path stroke="null" id="svg_7" fill="#345af6" d="m82.57442,129.66986c0,1.14281 0.92886,2.0769 2.0769,2.0769s2.0769,-0.92886 2.0769,-2.0769s-0.92886,-2.0769 -2.0769,-2.0769s-2.0769,0.92886 -2.0769,2.0769z" class="st2"/>
   </g>
  </g>
 </g>
</svg>