<svg width="256" height="60" xmlns="http://www.w3.org/2000/svg">
 <g>
  <title>Layer 1</title>
  <g id="svg_1" stroke="null">
   <!-- Generator: Adobe Illustrator 30.0.0, SVG Export Plug-In . SVG Version: 2.1.1 Build 123)  -->
   <polygon id="svg_2" class="st3" points="45.03025436401367,55.944305419921875 74.98388671875,4.0557098388671875 61.113189697265625,4.0557098388671875 31.15955924987793,55.944305419921875 45.03025436401367,55.944305419921875 " fill="#345af6" stroke="null"/>
   <g id="svg_3" stroke="null">
    <path id="svg_4" class="st2" d="m100.47822,47.21852l-5.09405,8.82486l-37.49829,0l30.07148,-52.08676l9.96312,0l-24.97743,43.2619l27.53785,0l-0.00268,0z" fill="#666" stroke="null"/>
    <path id="svg_5" class="st2" d="m113.02854,56.04338l-9.96044,0l30.03131,-52.01445l9.96044,0l-30.03131,52.01445z" fill="#666" stroke="null"/>
    <path id="svg_6" class="st2" d="m170.02722,56.04338l-16.3588,-30.95263l-17.86934,30.95263l-9.96312,0l30.03131,-52.01445l1.06862,0l16.06955,31.45078l18.15859,-31.45078l9.96312,0l-30.03131,52.01445l-1.06595,0l-0.00268,0l0.00001,0z" fill="#666" stroke="null"/>
    <path id="svg_7" class="st2" d="m214.28276,56.04338l-8.16333,-23.69455l-13.68054,23.69455l-9.96312,0l30.07148,-52.08676l9.96312,0l-15.28214,26.46922l35.94758,-26.39959l12.23964,0l-36.94657,26.89774l8.9802,25.11938l-13.16364,0l-0.00268,0l0,0.00001z" fill="#666" stroke="null"/>
   </g>
   <g id="svg_8" stroke="null">
    <path id="svg_9" class="st0" d="m0.58456,4.05572l3.06393,5.30563l19.00492,0c0.33746,-0.90257 1.20254,-1.54803 2.22028,-1.54803c1.31235,0 2.37829,1.06595 2.37829,2.37829s-1.06595,2.37829 -2.37829,2.37829c-0.98024,0 -1.82389,-0.59725 -2.18814,-1.44626l-18.022,0l3.43888,5.95377l19.79233,0l7.51787,-13.01901l-34.82806,0l0,-0.00268l-0.00001,0z" fill="#4faafd" stroke="null"/>
    <path id="svg_10" class="st3" d="m25.49236,10.18893c0,-0.34014 -0.27854,-0.61868 -0.61868,-0.61868s-0.61868,0.27854 -0.61868,0.61868s0.27854,0.61868 0.61868,0.61868s0.61868,-0.27854 0.61868,-0.61868z" fill="#345af6" stroke="null"/>
   </g>
   <g id="svg_11" stroke="null">
    <path id="svg_12" class="st1" d="m49.46813,4.05572l-15.81779,27.21913l-6.54031,0c-0.32407,0.92936 -1.19986,1.59892 -2.23635,1.59892c-1.31235,0 -2.37829,-1.06595 -2.37829,-2.37829s1.06595,-2.37829 2.37829,-2.37829c0.95882,0 1.78372,0.57583 2.15868,1.39537l5.60559,0l14.7947,-25.45952l-5.86271,0l-10.50145,18.35678l-19.88874,0l16.82214,29.13409l27.41465,-47.49087l-5.95109,0l0.00268,0.00268z" fill="#467cf9" stroke="null"/>
    <path id="svg_13" class="st3" d="m24.25501,30.49548c0,0.34014 0.27854,0.61868 0.61868,0.61868s0.61868,-0.27854 0.61868,-0.61868s-0.27854,-0.61868 -0.61868,-0.61868s-0.61868,0.27854 -0.61868,0.61868z" fill="#345af6" stroke="null"/>
   </g>
  </g>
 </g>

</svg>