<svg width="256" height="256" xmlns="http://www.w3.org/2000/svg" version="1.1">

 <g>
  <title>Layer 1</title>
  <g stroke="null" id="svg_10">
   <path stroke="#c7e18f" id="svg_1" d="m171.90692,119.25679a0.08408,0.08408 0 0 0 -0.1274,0.07389l0,76.70798a0.08408,0.08408 0 0 0 0.1274,0.07389l64.28937,-38.35654a0.08408,0.08408 0 0 0 0,-0.14268l-64.28937,-38.35654" vector-effect="non-scaling-stroke" fill="none" stroke-width="2"/>
   <path stroke="null" id="svg_2" d="m119.80175,39.38938a0.06625,0.06625 0 0 1 0.0586,0.09937l-25.57867,44.3034a0.14523,0.14014 14.5 0 1 -0.12485,0.07134l-67.42842,0a0.18345,0.18345 0 0 1 -0.15797,-0.08918l-11.64404,-20.16687a0.0637,0.0637 0 0 1 0.05605,-0.09427l61.32103,0a0.19874,0.19619 -12.7 0 1 0.17836,0.11211q1.43194,2.97089 4.21937,4.16077c3.67921,1.57207 7.88075,0.27772 10.02865,-3.0728c2.75176,-4.29581 0.89942,-10.17134 -3.99006,-11.96508c-4.27288,-1.56698 -8.56104,0.50959 -10.36498,4.64997a0.21403,0.21403 0 0 1 -0.19619,0.1274l-64.62315,0a0.24205,0.23951 -14.7 0 1 -0.20893,-0.11975l-10.35988,-17.94252a0.05096,0.04841 75 0 1 0.04077,-0.07389l118.7743,0z" fill="#4faafd"/>
   <path stroke="null" id="svg_3" d="m160.84381,39.38938a0.07389,0.07389 0 0 1 0.0637,0.11211l-50.42608,86.77994a0.15542,0.15542 0 0 1 -0.13249,0.07389l-18.90819,0a0.23441,0.23186 75.6 0 1 -0.20383,-0.1223q-1.00898,-1.90585 -2.30842,-2.8868c-3.7582,-2.84349 -8.83877,-2.18612 -11.61856,1.6587c-2.30333,3.18746 -1.92623,7.50875 0.77712,10.32421c4.26523,4.43849 11.25675,2.66004 13.43778,-2.91228a0.1223,0.11975 -79 0 1 0.11211,-0.07644l22.17463,0a0.12485,0.1223 15 0 0 0.10701,-0.06115l53.94222,-92.82363a0.13249,0.1274 -74.4 0 1 0.11211,-0.06625l20.15667,0a0.07134,0.07134 0 0 1 0.06115,0.10701l-93.52941,161.99993a0.07389,0.07389 0 0 1 -0.1274,0l-57.34371,-99.3234a0.06115,0.06115 0 0 1 0.05351,-0.09173l67.67811,0a0.24205,0.24205 0 0 0 0.21148,-0.12485l35.75255,-62.49053a0.15033,0.14778 -75 0 1 0.12994,-0.07644l19.82799,0z" fill="#467cf9"/>
   <path stroke="null" id="svg_4" d="m170.13611,104.66989a0.07134,0.07134 0 0 1 -0.09173,-0.09937l37.57942,-65.09196a0.18345,0.1809 -74.2 0 1 0.15542,-0.08918l47.17492,0a0.06879,0.06625 -74.6 0 1 0.05605,0.10192l-36.50419,63.22943a0.23696,0.23441 -59.7 0 1 -0.32104,0.08663q-0.26244,-0.15288 -0.59622,-0.28027q-9.08847,-3.42951 -18.70181,-3.87285a0.4357,0.40257 61.2 0 1 -0.21403,-0.07134q-0.09937,-0.06879 -0.16307,-0.06879q-1.12873,0.01529 -4.14039,0.00764a0.36181,0.35671 30 0 0 -0.19364,0.05096l-0.14523,0.08408a0.25479,0.23951 28.3 0 1 -0.10447,0.02803q-3.06516,0.01019 -6.92782,0.65227q-7.75335,1.28416 -14.32446,4.10726c-0.94528,0.40767 -1.67144,0.8026 -2.53774,1.22555z" fill="#345af6"/>
   <circle stroke="null" id="svg_5" r="2.11988" cy="60.3461" cx="83.90906" fill="#345af6"/>
   <path stroke="null" id="svg_6" d="m252.51578,157.68467a56.21243,56.21243 0 0 1 -56.21243,56.21243a56.21243,56.21243 0 0 1 -56.21243,-56.21243a56.21243,56.21243 0 0 1 56.21243,-56.21243a56.21243,56.21243 0 0 1 56.21243,56.21243zm-80.60886,-38.42788a0.08408,0.08408 0 0 0 -0.1274,0.07389l0,76.70798a0.08408,0.08408 0 0 0 0.1274,0.07389l64.28937,-38.35654a0.08408,0.08408 0 0 0 0,-0.14268l-64.28937,-38.35654z" fill="#8fc31f"/>
   <path stroke="null" id="svg_7" d="m171.90692,119.25679l64.28937,38.35654a0.08408,0.08408 0 0 1 0,0.14268l-64.28937,38.35654a0.08408,0.08408 0 0 1 -0.1274,-0.07389l0,-76.70798a0.08408,0.08408 0 0 1 0.1274,-0.07389z" fill="#ffffff"/>
   <circle stroke="null" id="svg_8" r="2.11988" cy="129.6982" cx="83.90906" fill="#345af6"/>
   <path stroke="null" id="svg_9" d="m137.35954,161.49382l0.06625,1.97465a0.27518,0.26244 25 0 0 0.06625,0.16816l0.03567,0.04077a0.22167,0.20638 22.2 0 1 0.0637,0.13759q0.03822,1.1746 0.16816,2.04344q3.27919,22.00137 19.82289,36.54496q1.19498,1.04975 2.07401,1.68673a0.32614,0.32359 -57.4 0 1 0.09173,0.42805l-6.93547,12.01349a0.16307,0.15797 14.5 0 1 -0.14014,0.07899l-47.16728,0a0.07899,0.07899 0 0 1 -0.06879,-0.1172l31.77523,-55.03529a0.07899,0.07899 0 0 1 0.14778,0.03567z" fill="#345af6"/>
  </g>
 </g>
</svg>